HIERARCHY
ROOT Hips
{
  OFFSET 13.6774 106.653 -34.4427
  CHANNELS 6 Xposition Yposition Zposition Zrotation Xrotation Yrotation
  JOINT ToSpine
  {
    OFFSET -2.69724 7.43032 -0.144315
    CHANNELS 3 Zrotation Xrotation Yrotation
    JOINT Spine
    {
      OFFSET -0.0310711 10.7595 1.96963
      CHANNELS 3 Zrotation Xrotation Yrotation
      JOINT Spine1
      {
        OFFSET 19.9056 3.91189 0.764692
        CHANNELS 3 Zrotation Xrotation Yrotation
        JOINT Neck
        {
          OFFSET 25.9749 7.03908 -0.130764
          CHANNELS 3 Zrotation Xrotation Yrotation
          JOINT Head
          {
            OFFSET 9.52751 0.295786 -0.907742
            CHANNELS 3 Zrotation Xrotation Yrotation
            End Site
            {
              OFFSET 16.4037 0.713936 2.7358
            }
          }
        }
        JOINT LeftShoulder
        {
          OFFSET 17.7449 4.33886 11.7777
          CHANNELS 3 Zrotation Xrotation Yrotation
          JOINT LeftArm
          {
            OFFSET 0.911315 1.27913 9.80584
            CHANNELS 3 Zrotation Xrotation Yrotation
            JOINT LeftForeArm
            {
              OFFSET 28.6126 1.18197 -3.53199
              CHANNELS 3 Zrotation Xrotation Yrotation
              JOINT LeftHand
              {
                OFFSET 27.5088 0.0218783 0.327423
                CHANNELS 3 Zrotation Xrotation Yrotation
                End Site
                {
                  OFFSET 18.6038 -0.000155887 0.382096
                }
              }
            }
          }
        }
        JOINT RightShoulder
        {
          OFFSET 17.1009 2.89543 -12.2328
          CHANNELS 3 Zrotation Xrotation Yrotation
          JOINT RightArm
          {
            OFFSET 1.4228 0.178766 -10.211
            CHANNELS 3 Zrotation Xrotation Yrotation
            JOINT RightForeArm
            {
              OFFSET 28.733 1.87905 2.64907
              CHANNELS 3 Zrotation Xrotation Yrotation
              JOINT RightHand
              {
                OFFSET 27.4588 0.290562 -0.101845
                CHANNELS 3 Zrotation Xrotation Yrotation
                End Site
                {
                  OFFSET 17.8396 -0.255518 -0.000602873
                }
              }
            }
          }
        }
      }
    }
  }
  JOINT LeftUpLeg
  {
    OFFSET -5.61296 -2.22332 -10.2353
    CHANNELS 3 Zrotation Xrotation Yrotation
    JOINT LeftLeg
    {
      OFFSET 2.56703 -44.7417 -7.93097
      CHANNELS 3 Zrotation Xrotation Yrotation
      JOINT LeftFoot
      {
        OFFSET 3.16933 -46.5642 -3.96578
        CHANNELS 3 Zrotation Xrotation Yrotation
        JOINT LeftToeBase
        {
          OFFSET 0.346054 -6.02161 12.8035
          CHANNELS 3 Zrotation Xrotation Yrotation
          End Site
          {
            OFFSET 0.134235 -1.35082 5.13018
          }
        }
      }
    }
  }
  JOINT RightUpLeg
  {
    OFFSET -5.7928 -1.72406 10.6446
    CHANNELS 3 Zrotation Xrotation Yrotation
    JOINT RightLeg
    {
      OFFSET -2.57161 -44.7178 -7.85259
      CHANNELS 3 Zrotation Xrotation Yrotation
      JOINT RightFoot
      {
        OFFSET -3.10148 -46.5936 -4.03391
        CHANNELS 3 Zrotation Xrotation Yrotation
        JOINT RightToeBase
        {
          OFFSET -0.0828122 -6.13587 12.8035
          CHANNELS 3 Zrotation Xrotation Yrotation
          End Site
          {
            OFFSET -0.131328 -1.35082 5.13018
          }
        }
      }
    }
  }
}
MOTION
Frames: 15
Frame Time: 0.03333333333333333
0.0000 93.1000 0.0000 -0.4768 -70.9772 -91.9008 -71.0487 -0.3927 87.6873 135.2198 57.7108 -58.4309 -1.8336 19.6881 -3.6087 -162.7433 19.2875 164.0234 -156.7234 57.3296 179.4856 0.7853 -7.1738 -19.1486 -94.7021 28.9331 -153.5709 20.2685 20.7966 -44.1888 13.0936 -0.9818 -2.5529 -0.2026 0.5374 17.3209 -93.0295 -36.1799 61.1842 1.9356 -13.6768 14.9711 5.7279 -0.8020 -0.9670 -13.5905 27.5466 71.9663 -23.3580 78.2868 -1.3875 2.2504 0.1734 -0.5418 -8.7525 -42.1370 18.2108 -7.4733 -33.1377 114.4081 159.2403 74.1752 -140.5571 -9.4147 -3.4128 0.7803 13.1954 -37.5815 -18.7054 
0.0000 93.1000 0.0000 -12.3446 -72.7756 -102.3083 -70.9098 0.1587 87.6706 135.3579 58.3590 -55.2741 -1.6270 20.0091 -3.2342 -157.8016 16.7826 164.9087 -151.1728 54.9839 175.7737 1.0039 -5.0096 -17.3375 -99.7683 24.5151 -136.4866 14.2161 20.7050 -31.9891 12.6910 -0.1799 0.1563 0.3050 3.1971 13.0668 -90.7967 -33.8641 56.2640 0.7140 -18.9539 12.0530 3.3798 -1.0287 -1.1759 -22.0990 35.3477 72.5949 -12.8002 68.9573 -13.5990 0.6145 -0.7585 -0.8427 -7.9363 -35.3644 22.6287 -4.0453 -35.0732 114.6576 153.2541 78.4262 -138.8067 -9.4649 -4.1142 0.9777 13.1094 -31.2949 -20.1347 
0.0000 93.1000 0.0000 -22.3650 -75.2193 -112.3904 -70.9856 1.0215 87.7209 135.4695 58.1974 -54.1693 1.3893 19.6493 -2.8719 -154.2270 15.2313 166.7772 -148.5192 53.8164 173.5011 1.7351 -3.2399 -17.0359 -98.9140 21.0826 -119.3999 8.4780 25.0164 -19.4929 11.5184 0.9223 1.5410 1.1409 4.9943 11.4700 -88.4201 -31.7233 52.0149 -0.5044 -17.5805 12.4777 1.9597 -1.2937 -2.0658 -37.9539 39.7762 76.9160 -7.0120 53.8880 -17.8976 -2.8014 -1.4704 -0.7098 -7.2318 -20.5550 25.7515 -6.4449 -37.5469 112.2657 117.0710 84.6299 -104.8277 -9.2010 -5.1662 1.5223 12.4557 -21.7950 -20.3938 
0.0000 93.1000 0.0000 -27.8845 -75.8778 -120.8044 -71.1704 0.5369 87.7077 134.5763 59.2059 -50.2922 4.4711 19.2150 -1.2404 -154.6975 16.0750 169.4720 -144.9045 53.7031 170.7288 1.0233 -1.7303 -16.3868 -101.7483 22.7945 -102.4319 0.4725 34.0686 -8.0759 11.0548 0.4370 2.1284 0.0768 5.5677 12.0242 -86.9578 -29.1042 53.3486 -1.0833 -15.4452 11.6722 1.8247 -1.0929 -2.7254 -49.7887 41.0013 78.6307 -4.0733 38.8715 -15.6349 -7.6763 3.6175 0.9433 -7.0439 -1.6172 26.5172 -11.8986 -40.1956 108.0907 19.9835 79.8332 -7.0790 -8.3207 -4.2084 0.8104 7.9442 -7.0689 -20.0374 
0.0000 93.1000 0.0000 -19.8731 -74.1413 -112.1095 -71.2632 0.1692 87.8578 131.6802 60.2161 -45.5729 6.7002 17.8098 0.8483 -154.4983 16.6895 171.5146 -141.3918 52.1465 166.8049 0.6373 -0.6309 -17.0690 -103.5817 26.8283 -86.7378 -4.0164 34.9340 -1.1492 11.2254 0.1950 2.9306 -0.1426 4.3022 13.8356 -84.4139 -27.5656 57.0710 -2.5702 -11.5792 10.8374 1.3192 -0.3650 -2.1721 -46.3030 40.7165 74.6443 -3.5197 36.2554 -12.6625 -5.5323 7.7052 1.1713 -6.4495 2.3860 23.5047 -16.8489 -42.2203 104.6471 5.8335 62.7324 6.1320 -5.6771 -2.3291 -0.2292 3.4832 8.6976 -16.6481 
0.0000 93.1000 0.0000 -11.0183 -73.5345 -102.8457 -71.3685 0.1041 87.9322 131.4222 60.6172 -44.7128 9.0065 17.2929 3.1195 -155.6889 17.8441 171.3528 -138.1052 51.9928 164.9132 0.7298 -0.8537 -18.5930 -103.8522 29.9001 -73.0029 -7.3055 29.7547 3.2261 11.2776 0.2254 3.8854 0.1447 1.6871 15.2397 -83.1976 -26.4628 64.1820 -2.7802 -8.2253 11.9165 0.2998 0.3898 -1.4759 -34.2220 38.9517 70.2516 -5.3251 52.1574 -9.3401 -2.0663 7.2606 0.2071 -6.0474 -7.1230 20.7907 -23.7589 -42.2635 104.0161 2.8572 50.2890 10.1622 -3.2271 1.4552 -0.4401 -1.3374 18.8466 -10.5139 
0.0000 93.1000 0.0000 -8.7668 -74.7412 -101.1847 -71.3295 0.5114 87.9000 135.5157 60.4625 -49.1806 11.9544 18.1223 2.2187 -157.5231 18.6583 170.1734 -136.0679 52.3838 165.1053 1.1552 -0.8952 -19.0737 -105.3108 29.2706 -66.1816 -10.6311 33.7296 8.7902 9.9688 0.3469 4.1795 0.5781 -0.4251 16.8896 -81.8905 -25.3207 73.7623 -2.5995 -6.2785 14.4078 -0.2081 0.6691 -0.4723 -24.1808 36.6918 68.4662 -10.9261 70.9746 -5.5330 2.1407 7.7205 -0.6922 -5.8923 -17.3827 19.0652 -27.2496 -41.5569 101.9904 3.6603 52.0910 12.0952 -2.2419 3.1508 -0.3106 -1.3579 18.4057 -8.2769 
0.0000 93.1000 0.0000 -3.6587 -76.7297 -95.7292 -71.1786 0.4895 87.5859 140.4393 59.3976 -53.8811 14.6002 19.0545 2.4284 -157.5147 19.4525 169.7067 -134.9902 53.7718 164.7685 1.7069 -2.0388 -20.8630 -107.0646 28.6706 -61.2625 -10.8187 41.5894 10.1601 8.2227 0.1753 3.7867 0.3192 -1.2730 19.0449 -81.6136 -23.2208 84.4769 -1.2897 -5.3738 15.8994 1.9499 -0.2142 -0.6711 -14.7575 32.9216 64.2305 -114.5895 84.6643 98.8473 4.5938 8.1317 -1.1706 -6.7374 -22.4395 17.1158 -31.1466 -40.5650 92.9396 4.8821 59.9873 6.0717 -3.0983 -1.5278 -0.1500 4.8501 2.7680 -17.5307 
0.0000 93.1000 0.0000 -2.5975 -78.1425 -91.6748 -70.9244 0.1290 87.5630 145.7368 58.4003 -55.6275 15.6429 20.0801 3.6775 -158.3881 19.7186 170.9967 -134.6517 54.7515 164.8134 1.2378 -3.0640 -21.1217 -109.3412 28.1007 -56.3049 -11.0745 46.0511 11.3996 8.3681 0.0462 4.2879 -0.0748 -0.9462 22.5405 -87.3458 -18.9131 95.6786 -0.7562 -10.8749 13.9667 4.2221 0.0391 -0.7346 -6.0512 28.7502 64.4769 -165.0232 70.0005 153.1878 6.7761 6.9159 -1.2978 -7.3877 -24.2926 13.0187 -33.1601 -38.1870 85.4960 6.0146 65.4613 3.8742 -4.5572 -4.6676 -0.1313 8.0430 -11.0141 -19.0138 
0.0000 93.1000 0.0000 -7.1970 -76.5576 -94.3683 -70.9309 0.0803 87.4749 147.6737 57.7577 -55.0624 17.2391 20.5110 3.4761 -159.5828 19.8553 171.6343 -130.7773 53.8972 164.0327 0.9866 -3.7325 -23.0659 -111.3675 32.0181 -54.2909 -11.4550 50.7743 11.3650 7.1644 0.4133 4.2993 -0.5943 0.7108 26.1189 -97.6744 -16.1538 106.8498 -0.9112 -16.4746 10.3405 7.4094 -0.5059 -1.0299 -0.2515 22.8557 70.9053 -169.1123 59.0583 159.3086 6.9651 5.2887 -1.7115 -7.1940 -26.1847 12.3166 -28.6519 -33.3535 83.2775 11.5733 72.6957 1.4722 -5.9958 -4.4369 0.1399 11.1146 -19.6910 -20.6323 
0.0000 93.1000 0.0000 -9.8257 -73.6168 -94.2051 -70.9142 -0.4559 87.4549 151.5799 57.5049 -55.8815 17.1922 20.6625 3.8855 -160.4970 20.7465 171.2713 -130.0843 53.9762 163.6315 0.6301 -4.4938 -24.6801 -114.3713 39.7401 -55.3073 -14.0116 58.8378 14.3193 6.8592 0.0143 3.7029 -1.2675 1.8709 25.9099 -103.6760 -20.0273 117.1564 -0.3945 -12.8482 10.3034 10.6049 -0.7920 -0.6113 -0.0693 17.0245 84.4927 -169.1920 61.3584 158.7303 6.7074 4.7917 -1.5636 -6.5245 -26.2942 9.3225 -28.1389 -28.4558 77.3021 14.7238 76.1679 -0.5347 -5.8692 -6.2623 -0.0191 9.3807 -15.8247 -19.7915 
0.0000 93.1000 0.0000 -9.9381 -71.4193 -94.1211 -70.9182 -0.1131 87.6689 154.6908 56.9767 -58.7586 16.8422 21.5850 3.4913 -160.5424 20.6882 168.6986 -128.8704 54.0229 163.1632 0.5616 -5.2261 -25.0205 -113.6356 47.8506 -60.3509 -19.1855 65.2177 18.3469 7.8908 -0.2260 3.1093 -0.7707 3.4162 23.9024 -101.2082 -24.1382 124.4806 -0.3188 -4.1154 14.4036 10.3849 0.5725 2.1991 -2.4356 8.7905 98.7489 -158.2108 75.9284 145.6214 5.5915 7.0826 -1.4875 -6.9562 -24.5918 7.2740 -26.6385 -26.5824 70.9667 16.0769 76.2109 -1.1058 -6.8895 -5.2375 0.2708 7.7321 -8.7951 -16.1577 
0.0000 93.1000 0.0000 -14.9765 -68.4196 -100.0936 -71.3556 0.1841 87.7497 154.8885 57.7516 -61.2609 15.2274 23.5406 1.9796 -159.5649 20.3994 170.9654 -129.9580 54.8023 163.8017 0.5456 -5.0393 -26.1393 -106.8109 55.3252 -68.0871 -21.2850 63.5962 16.6458 9.8612 -0.0981 2.0323 -0.5004 3.8401 22.3855 -87.2873 -20.6443 133.8895 -1.1586 0.8940 19.2508 6.8443 0.6415 3.5615 -7.5925 0.1871 109.0684 -26.4777 79.3788 11.9104 4.1343 8.0941 -0.8658 -6.3842 -20.8333 6.3945 -19.6305 -26.9562 71.5326 20.1014 78.9324 -5.8105 -5.6201 -4.0644 -0.1368 -3.5294 11.0162 -3.0625 
0.0000 93.1000 0.0000 -23.1052 -68.1907 -109.1652 -70.9563 -0.0456 87.7215 154.6914 57.8300 -62.7287 15.8425 25.0522 0.5574 -158.5432 20.6372 171.3031 -131.3365 54.9133 166.3233 0.5472 -5.3011 -26.3383 -100.4527 58.1468 -75.3790 -20.3039 57.2381 13.3963 12.5891 -0.1821 1.6904 -0.8644 4.8886 20.9821 -77.2949 -21.4334 140.1173 5.9948 -6.2628 26.5780 1.9788 0.1051 4.5037 -15.2457 -6.2858 110.2441 -7.4990 65.2192 -6.0929 3.9815 8.7362 -0.7992 -5.1489 -15.8351 8.1284 -17.9190 -23.1217 74.4325 19.0278 78.0371 -7.2052 -5.7243 -2.0931 0.1151 -8.0110 18.7037 2.3743 
0.0000 93.1000 0.0000 -33.1030 -69.0562 -114.6874 -70.6983 0.2839 87.6748 154.6348 58.1958 -62.8819 15.8656 25.6264 -0.0863 -156.6199 19.3081 171.2141 -132.7947 54.1382 165.9876 1.2080 -5.3126 -26.5739 -101.0461 59.1764 -78.1778 -18.1754 56.2626 13.2066 15.6065 0.1615 2.1845 -1.1891 5.7706 21.9403 -73.0963 -26.6521 144.0125 15.5244 -18.2441 36.8825 -2.4461 -0.8943 5.0085 -21.1099 -9.1146 103.3878 -6.4183 61.7568 -5.9057 5.3642 9.8049 -1.1247 -5.4119 -13.6730 9.2191 -20.8069 -16.5090 79.9101 10.1201 74.3041 -6.9756 -5.9166 -1.8038 -0.3278 4.3066 7.2397 -18.9734 
